<?xml version="1.0" ?><!DOCTYPE svg  PUBLIC '-//W3C//DTD SVG 1.1//EN'  'http://www.w3.org/Graphics/SVG/1.1/DTD/svg11.dtd'><svg enable-background="new 0 0 462.2 400.277" height="400.277px" id="Icons" version="1.1" viewBox="0 0 462.2 400.277" width="462.2px" xml:space="preserve" xmlns="http://www.w3.org/2000/svg" xmlns:xlink="http://www.w3.org/1999/xlink"><g><g><polygon fill="#F39914" points="115.55,400.277 0,200.138 115.55,0 346.65,0 462.2,200.138 346.65,400.277   "/></g><g opacity="0.4"><path d="M343.746,384.533c-28.312-6.653-56.445-14.238-83.839-24.052c-13.936-4.993-24.249-9.271-37.301-15.648    c-12.378-6.048-24.288-13.085-36.125-20.118c-17.018-10.111-33.677-20.823-49.957-32.082    c-16.781-11.606-31.169-22.454-46.351-34.968c-15.418-12.709-30.214-26.171-44.275-40.367    c-6.725-6.789-13.23-13.793-19.551-20.959c-3.311-3.753-6.541-7.578-9.725-11.44c-0.209-0.253-0.411-0.511-0.618-0.765    l-9.24,16.005l112.168,194.281h224.336l5.086-8.808C346.818,385.252,345.281,384.894,343.746,384.533z"/></g><g opacity="0.4"><path d="M334.899,9.641c0.426,4.126,1.034,8.243,1.721,12.342c4.023,23.981,12.6,47.607,22.77,69.599    c12.125,26.219,28.474,50.327,47.353,72.137c12.031,13.899,25.78,27.671,40.77,39.167l0.418-0.736L334.899,9.641z" fill="#FFFFFF"/></g><g><path d="M307.322,269.289c1.625,2.609,0.977,4.883-1.953,6.836c-4.563,3.258-7.98,5.539-10.254,6.836    c-20.188,11.719-40.695,17.906-61.523,18.555c-22.141,0-42.16-6.18-60.059-18.555c-3.258-2.273-7.813-5.775-13.672-10.498    c-5.859-4.715-10.094-7.889-12.695-9.521c-2.609-2.273-3.098-4.555-1.465-6.836c1.625-2.273,3.906-2.602,6.836-0.977    c8.789,4.883,17.41,9.445,25.879,13.672c14.969,7.813,29.617,12.375,43.945,13.672c11.719,0.977,24.246,0.168,37.598-2.441    c13.016-2.93,25.711-6.996,38.086-12.207c0.32-0.32,0.732-0.564,1.221-0.732c0.488-0.16,0.893-0.244,1.221-0.244    C303.416,265.871,305.689,266.687,307.322,269.289z M245.798,179.445l1.465-0.488c-0.328-1.625-0.488-4.15-0.488-7.568    s-0.168-5.936-0.488-7.568c-0.977-6.18-5.051-9.766-12.207-10.742c-5.211-0.648-9.934,0.328-14.16,2.93    c-4.234,2.609-6.836,6.348-7.813,11.23c-0.977,2.93-3.098,4.234-6.348,3.906c-4.234-0.32-10.582-1.137-19.043-2.441    c-3.906-0.32-5.371-2.441-4.395-6.348c2.93-13.672,10.574-23.109,22.949-28.32c17.898-8.133,36.293-8.301,55.176-0.488    c12.039,5.539,18.387,14.977,19.043,28.32c0.648,16.602,0.648,33.531,0,50.781c0,9.766,2.762,18.066,8.301,24.902    c2.602,2.609,2.441,5.051-0.488,7.324c-1.953,1.633-4.723,3.99-8.301,7.08c-3.586,3.098-6.188,5.455-7.813,7.08    c-2.93,2.281-5.539,2.121-7.813-0.488c-2.93-2.93-7.004-7.324-12.207-13.184c-0.328,0.328-3.098,2.609-8.301,6.836    c-9.117,7.164-20.508,10.254-34.18,9.277c-9.766-1.297-17.334-4.959-22.705-10.986c-5.371-6.02-8.057-13.748-8.057-23.193    c-0.656-21.805,10.086-35.965,32.227-42.48c6.836-2.273,17.41-4.066,31.738-5.371H245.798z M246.775,197.511    c-7.164,0.656-12.535,1.305-16.113,1.953c-13.352,2.609-19.531,10.742-18.555,24.414c0.32,4.883,2.029,8.629,5.127,11.23    c3.09,2.609,6.912,3.586,11.475,2.93c5.203-0.977,9.438-4.066,12.695-9.277C244.982,223.558,246.775,213.136,246.775,197.511z     M327.83,250.49c1.297,1.465,1.625,4.479,0.977,9.033c-0.977,9.445-4.563,17.418-10.742,23.926    c-1.305,1.305-2.281,1.953-2.93,1.953c-1.305,0.328-2.77,0.168-4.395-0.488c-0.656-0.648-0.977-2.113-0.977-4.395    c0.32-1.297,0.977-3.174,1.953-5.615s1.625-4.311,1.953-5.615c0.32-1.625,0.809-3.738,1.465-6.348    c0.648-1.953-0.168-2.93-2.441-2.93h-4.395c-5.859,0.656-10.094,1.145-12.695,1.465c-2.609,0.656-4.395,0-5.371-1.953    c-0.977-2.273-0.328-4.227,1.953-5.859c7.156-4.883,16.113-6.836,26.855-5.859C323.595,248.132,326.525,249.025,327.83,250.49z" fill="#FFFFFF"/></g></g></svg>